<?xml version="1.0" standalone="no"?>
<svg xmlns:xlink="http://www.w3.org/1999/xlink" id="wave" style="transform:rotate(180deg); transition: 0.3s" viewBox="0 0 1440 180" version="1.1" xmlns="http://www.w3.org/2000/svg"><defs><linearGradient id="sw-gradient-0" x1="0" x2="0" y1="1" y2="0"><stop stop-color="rgba(255, 255, 255, 1)" offset="0%"/><stop stop-color="rgba(255, 255, 255, 1)" offset="100%"/></linearGradient></defs><path style="transform:translate(0, 0px); opacity:1" fill="url(#sw-gradient-0)" d="M0,36L34.3,36C68.6,36,137,36,206,51C274.3,66,343,96,411,111C480,126,549,126,617,111C685.7,96,754,66,823,48C891.4,30,960,24,1029,39C1097.1,54,1166,90,1234,96C1302.9,102,1371,78,1440,60C1508.6,42,1577,30,1646,21C1714.3,12,1783,6,1851,12C1920,18,1989,36,2057,51C2125.7,66,2194,78,2263,72C2331.4,66,2400,42,2469,36C2537.1,30,2606,42,2674,42C2742.9,42,2811,30,2880,27C2948.6,24,3017,30,3086,30C3154.3,30,3223,24,3291,27C3360,30,3429,42,3497,57C3565.7,72,3634,90,3703,105C3771.4,120,3840,132,3909,120C3977.1,108,4046,72,4114,60C4182.9,48,4251,60,4320,54C4388.6,48,4457,24,4526,36C4594.3,48,4663,96,4731,105C4800,114,4869,84,4903,69L4937.1,54L4937.1,180L4902.9,180C4868.6,180,4800,180,4731,180C4662.9,180,4594,180,4526,180C4457.1,180,4389,180,4320,180C4251.4,180,4183,180,4114,180C4045.7,180,3977,180,3909,180C3840,180,3771,180,3703,180C3634.3,180,3566,180,3497,180C3428.6,180,3360,180,3291,180C3222.9,180,3154,180,3086,180C3017.1,180,2949,180,2880,180C2811.4,180,2743,180,2674,180C2605.7,180,2537,180,2469,180C2400,180,2331,180,2263,180C2194.3,180,2126,180,2057,180C1988.6,180,1920,180,1851,180C1782.9,180,1714,180,1646,180C1577.1,180,1509,180,1440,180C1371.4,180,1303,180,1234,180C1165.7,180,1097,180,1029,180C960,180,891,180,823,180C754.3,180,686,180,617,180C548.6,180,480,180,411,180C342.9,180,274,180,206,180C137.1,180,69,180,34,180L0,180Z"/></svg>